<?xml version="1.0" standalone="no"?>
<!DOCTYPE svg PUBLIC "-//W3C//DTD SVG 20010904//EN"
 "http://www.w3.org/TR/2001/REC-SVG-20010904/DTD/svg10.dtd">
<svg version="1.0" xmlns="http://www.w3.org/2000/svg"
 width="700.000000pt" height="700.000000pt" viewBox="0 0 700.000000 700.000000"
 preserveAspectRatio="xMidYMid meet">
<metadata>
Created by potrace 1.14, written by Peter Selinger 2001-2017
</metadata>
<g transform="translate(0.000000,700.000000) scale(0.100000,-0.100000)"
fill="#000000" stroke="none">
<path d="M3479 6996 c-2 -2 -29 -7 -59 -10 -262 -31 -557 -181 -747 -380 -103
-107 -163 -194 -325 -476 -74 -129 -187 -325 -251 -435 -63 -110 -147 -256
-187 -325 -40 -69 -80 -138 -90 -155 -9 -16 -117 -202 -238 -413 -122 -211
-222 -388 -222 -393 0 -5 -4 -9 -9 -9 -5 0 -11 -8 -14 -17 -4 -10 -18 -38 -33
-63 -37 -63 -98 -169 -121 -210 -11 -19 -46 -80 -78 -135 -136 -234 -223 -384
-229 -397 -3 -7 -14 -26 -25 -43 -16 -26 -215 -372 -269 -465 -10 -19 -94
-164 -186 -323 -92 -158 -175 -302 -185 -320 -10 -17 -56 -96 -101 -175 l-83
-142 1 -383 c1 -416 3 -458 31 -592 53 -255 178 -483 371 -675 185 -185 418
-314 658 -365 38 -7 81 -17 97 -21 34 -9 2385 -18 2385 -9 0 26 -121 178 -204
258 -59 55 -185 146 -254 181 -100 51 -231 92 -387 120 -16 3 -43 8 -60 11
-330 61 -759 237 -1060 436 -83 54 -242 171 -285 208 -14 12 -51 45 -84 74
-199 174 -407 419 -553 652 -59 93 -61 100 -40 102 12 1 191 4 397 7 206 2
393 7 415 10 22 4 72 11 110 17 39 6 97 18 130 26 33 8 69 17 80 19 53 10 211
70 310 119 394 191 725 546 1090 1165 37 63 76 127 86 142 11 15 19 29 19 31
0 2 55 98 121 213 182 314 310 535 332 574 11 19 86 150 168 291 81 141 160
279 175 305 15 27 35 61 45 76 11 14 19 29 19 32 0 4 20 39 43 79 24 39 140
239 257 442 117 204 232 402 255 440 22 39 44 77 48 85 4 8 17 31 28 50 12 19
107 184 211 365 105 182 199 342 209 357 11 14 19 31 19 37 0 8 -235 11 -864
11 -475 -1 -865 -2 -867 -4z"/>
<path d="M5219 6963 c-2 -21 -4 -1581 -3 -3468 l1 -3430 875 -3 875 -2 0 3470
0 3470 -873 0 -872 0 -3 -37z"/>
<path d="M3610 2800 c-173 -53 -301 -178 -351 -341 -21 -69 -28 -166 -16 -234
32 -196 175 -354 372 -411 56 -16 181 -22 230 -10 254 58 424 278 410 530 -5
84 -7 95 -33 163 -50 133 -172 248 -312 295 -85 29 -222 32 -300 8z"/>
</g>
</svg>
