<svg viewBox="0 0 24 24" xmlns="http://www.w3.org/2000/svg" xml:space="preserve" fill="currentColor"><path style="fill:none" d="M0 0h24v24H0z"/><clipPath id="a"><path d="M0 0h24v24H0z"/></clipPath><g clip-path="url(#a)"><path d="m6.656 14.352.449.1c.476.106.814.529.814 1.016v1.694a.295.295 0 0 0 .347.288l2.806-.524a1.04 1.04 0 0 1 1.196.753l1.338 4.994a1.04 1.04 0 0 1-.948 1.31c-.218.01-.437.017-.658.017-6.623 0-12-5.377-12-12S5.377 0 12 0s12 5.377 12 12c0 2.542-.793 4.901-2.143 6.843-.293.42-.846.565-1.306.344l-3.103-1.492a1.043 1.043 0 0 1-.554-.67l-.787-2.936a1.043 1.043 0 0 1 .103-.789 4.44 4.44 0 0 0-3.853-6.642 4.44 4.44 0 0 0-4.438 4.439v.834c0 .187-.05.37-.145.53l-1.118 1.89Zm4.585 7.538-.734-2.74-1.859.347a2.375 2.375 0 0 1-2.811-2.335v-.86l-.44-.097-.331-.117-.29-.188-.24-.25-.177-.304-.1-.336-.019-.346.062-.34.142-.322 1.393-2.355v-.55c0-3.6 2.922-6.52 6.52-6.52a6.523 6.523 0 0 1 5.867 9.367l.558 2.082 1.836.883a9.87 9.87 0 0 0 1.3-4.909c0-5.474-4.444-9.918-9.918-9.918-5.474 0-9.918 4.444-9.918 9.918 0 5.218 4.04 9.501 9.16 9.89Z"/></g></svg>