<svg viewBox="0 0 24 24" xmlns="http://www.w3.org/2000/svg" xml:space="preserve" fill="currentColor"><path style="fill:none" d="M148 0h24v24h-24z" transform="translate(-148)"/><path d="m20.914 16.043.138.745a4.138 4.138 0 0 1-4.068 4.888H5.699a3.95 3.95 0 0 1-3.886-4.669L3.667 6.961a1.048 1.048 0 0 0-.144-.75L2.417 4.453a.95.95 0 0 1 .803-1.456h13.636c.957 0 1.776.682 1.95 1.622l.397 2.15a4.919 4.919 0 0 1 1.712 9.274Zm-1.73 1.09L16.937 4.965a.082.082 0 0 0-.08-.068H4.94l.19.302a2.95 2.95 0 0 1 .405 2.106L3.68 17.352A2.053 2.053 0 0 0 5.7 19.776h11.285a2.238 2.238 0 0 0 2.2-2.643Zm1.36-3.096a3.013 3.013 0 0 0 1.16-2.377 3.02 3.02 0 0 0-2.13-2.885l.97 5.262Zm-14.93-2.862.177-.476.32-.375.428-.247.5-.089h8.827l.5.09.428.246.32.375.178.476 1.113 6.032.024.318-.047.312-.112.294-.176.267-.23.221-.269.164-.298.102-.317.035H5.922l-.316-.035-.298-.102-.269-.163-.229-.22-.176-.267-.112-.294-.046-.31.023-.318 1.114-6.036Zm.852 5.845h9.973l-.947-5.132H7.414l-.948 5.132Z"/></svg>