<svg viewBox="0 0 24 24" xmlns="http://www.w3.org/2000/svg" xml:space="preserve" fill="currentColor"><path style="fill:none" d="M74 0h24v24H74z" transform="translate(-74)"/><path d="M1.05 19V5A2.951 2.951 0 0 1 4 2.05h6c1.296 0 2.398.838 2.794 2H20A2.95 2.95 0 0 1 22.95 7v12A2.95 2.95 0 0 1 20 21.95H4A2.95 2.95 0 0 1 1.05 19Zm1.9 0c0 .58.47 1.05 1.05 1.05h16c.58 0 1.05-.47 1.05-1.05V7c0-.58-.47-1.05-1.05-1.05h-8a.95.95 0 0 1-.95-.95c0-.579-.47-1.05-1.05-1.05H4c-.58 0-1.05.471-1.05 1.05v14Z"/><path d="M22.95 13v6A2.95 2.95 0 0 1 20 21.95H4A2.95 2.95 0 0 1 1.05 19v-6A2.95 2.95 0 0 1 4 10.05h16A2.95 2.95 0 0 1 22.95 13Zm-1.9 0c0-.58-.47-1.05-1.05-1.05H4c-.58 0-1.05.47-1.05 1.05v6c0 .58.47 1.05 1.05 1.05h16c.58 0 1.05-.47 1.05-1.05v-6Z"/><path d="M5.472 11.335a4.854 4.854 0 0 1-.174-.56c-.628-2.337.078-4.333 1.482-5.07 1.242-.651 3.148-.405 4.182 1.082 1.614-.822 3.411-.138 4.197 1.022.647.954.677 2.275.012 3.614a.949.949 0 0 1-.85.527H6.36a.951.951 0 0 1-.889-.615Zm1.603-1.285h6.606c.13-.44.125-.852-.095-1.175-.422-.622-1.51-.815-2.299.02A.95.95 0 0 1 9.68 8.49c-.3-1.109-1.35-1.453-2.016-1.103-.322.168-.514.508-.617.919-.126.5-.115 1.1.03 1.743Z"/></svg>