<svg xmlns="http://www.w3.org/2000/svg" width="24" height="24" fill="currentColor" data-name="Layer 1" viewBox="0 0 24 24"><path d="M22.5 10.5h-3.151a7.455 7.455 0 0 0-1.1-2.632l2.232-2.232a1.5 1.5 0 0 0-2.121-2.121l-2.228 2.232a7.455 7.455 0 0 0-2.632-1.1V1.5a1.5 1.5 0 0 0-3 0v3.151a7.455 7.455 0 0 0-2.632 1.1L5.636 3.515a1.5 1.5 0 0 0-2.121 2.121l2.232 2.232a7.455 7.455 0 0 0-1.1 2.632H1.5a1.5 1.5 0 0 0 0 3h3.151a7.455 7.455 0 0 0 1.1 2.632l-2.236 2.232a1.5 1.5 0 0 0 2.121 2.121l2.232-2.232a7.455 7.455 0 0 0 2.632 1.1V22.5a1.5 1.5 0 0 0 3 0v-3.151a7.455 7.455 0 0 0 2.632-1.1l2.232 2.232a1.5 1.5 0 0 0 2.121-2.121l-2.232-2.232a7.455 7.455 0 0 0 1.1-2.632H22.5a1.5 1.5 0 0 0 0-2.996Zm-10.5 6a4.5 4.5 0 0 1 0-9 4.5 4.5 0 0 1 0 9Z"/></svg>