<?xml version="1.0" encoding="UTF-8" standalone="no"?><!DOCTYPE svg PUBLIC "-//W3C//DTD SVG 1.1//EN" "http://www.w3.org/Graphics/SVG/1.1/DTD/svg11.dtd"><svg width="100%" height="100%" viewBox="0 0 538 538" version="1.1" xmlns="http://www.w3.org/2000/svg" xmlns:xlink="http://www.w3.org/1999/xlink" xml:space="preserve" xmlns:serif="http://www.serif.com/" style="fill:#fff;fill-rule:evenodd;clip-rule:evenodd;stroke-linejoin:round;stroke-miterlimit:2;"><g><path d="M89.167,375.842c84.404,-0 120.773,-45.029 162.975,-118.125c63.622,-110.197 148.793,-257.717 148.793,-257.717l-124.096,0c-35.726,-0 -68.739,19.06 -86.602,50l-188.125,325.842c-0,-0 -0,23.876 -0,53.036c-0,27.703 11.005,54.272 30.594,73.861c19.589,19.589 46.158,30.594 73.861,30.594l168.232,0l0.018,0.031c0.053,-0.031 0.053,-0.031 0.053,-0.031l-0.071,0c-13.106,-22.681 -35.683,-38.306 -61.533,-42.581c-68.963,-11.499 -130.096,-53.203 -165.722,-114.91l41.623,-0Z"/><circle cx="287.993" cy="360.632" r="39.368"/><rect x="400.935" y="0" width="134.51" height="533.333"/></g></svg>