<?xml version="1.0" encoding="UTF-8" standalone="no"?><!DOCTYPE svg PUBLIC "-//W3C//DTD SVG 1.1//EN" "http://www.w3.org/Graphics/SVG/1.1/DTD/svg11.dtd"><svg width="100%" height="100%" viewBox="0 0 3142 538" version="1.1" xmlns="http://www.w3.org/2000/svg" xmlns:xlink="http://www.w3.org/1999/xlink" xml:space="preserve" xmlns:serif="http://www.serif.com/" style="fill:#fff;fill-rule:evenodd;clip-rule:evenodd;stroke-linejoin:round;stroke-miterlimit:2;"><g><g><path d="M972.708,438.333l-107.5,-287.083l-55,-0l-107.916,287.083l54.166,0l24.584,-70.416l112.916,-0l25,70.416l53.75,0Zm-135,-231.25l40.834,116.667l-82.084,-0l41.25,-116.667Z" style="fill-rule:nonzero;"/><path d="M1035.62,367.083l-50.417,-123.333l-52.916,-0l77.5,180.833l-43.75,108.75l50.833,0l120.833,-289.583l-52.083,-0l-50,123.333Z" style="fill-rule:nonzero;"/><path d="M1234.38,443.333c55.417,0 103.75,-40.833 103.75,-102.5c0,-61.666 -48.333,-102.083 -103.75,-102.083c-55.417,-0 -103.333,40.417 -103.333,102.083c-0,61.667 47.916,102.5 103.333,102.5Zm0,-45c-30,0 -54.583,-23.333 -54.583,-57.5c-0,-33.333 24.583,-57.083 54.583,-57.083c30,-0 55,23.75 55,57.083c0,34.167 -25,57.5 -55,57.5Z" style="fill-rule:nonzero;"/><path d="M1498.54,347.917c-0,37.916 -27.5,50.416 -49.584,50.416c-21.666,0 -40.416,-16.25 -40.416,-47.5l-0,-107.083l-48.334,-0l0,109.167c0,56.666 27.917,90.416 77.917,90.416c19.583,0 50.417,-10.833 60.417,-35.416l-0,30.416l48.333,0l0,-194.583l-48.333,-0l-0,104.167Z" style="fill-rule:nonzero;"/><path d="M1696.88,238.75c-24.583,-0 -51.667,10 -65,30.833l-0,-118.333l-48.333,-0l-0,287.083l48.333,0l0,-26.25c13.333,20.834 41.25,31.25 64.583,31.25c51.25,0 95.834,-40.416 95.834,-102.5c-0,-62.5 -44.167,-102.083 -95.417,-102.083Zm-7.917,159.583c-29.583,0 -56.25,-23.75 -56.25,-57.916c0,-34.167 28.334,-56.667 56.25,-56.667c30,-0 55,24.167 55,56.667c0,32.5 -25,57.916 -55,57.916Z" style="fill-rule:nonzero;"/><path d="M2128.12,438.333l-107.5,-287.083l-55,-0l-107.917,287.083l54.167,0l24.583,-70.416l112.917,-0l25,70.416l53.75,0Zm-135,-231.25c0,0 13.766,39.333 25.313,72.322c3.568,10.196 1.975,21.489 -4.276,30.3c-6.251,8.81 -16.384,14.045 -27.186,14.045c-18.361,-0 -35.101,-0 -35.101,-0l41.25,-116.667Z" style="fill-rule:nonzero;"/><path d="M2282.71,270.833c-12.916,-20.416 -38.75,-32.083 -65.416,-32.083c-55,-0 -95,43.333 -95,102.083c-0,60.417 41.666,102.5 93.75,102.5c27.916,0 53.75,-14.166 66.666,-35.416l0,30.416l48.334,0l-0,-194.583l-48.334,-0l0,27.083Zm-56.666,127.5c-31.667,0 -55.417,-26.25 -55.417,-57.5c-0,-31.25 23.75,-57.083 55,-57.083c28.75,-0 56.25,23.75 56.25,57.083c-0,32.5 -25.833,57.5 -55.833,57.5Z" style="fill-rule:nonzero;"/><path d="M2472.71,238.75c-24.583,-0 -51.666,10 -65,30.833l0,-118.333l-48.333,-0l-0,287.083l48.333,0l0,-26.25c13.334,20.834 41.25,31.25 64.584,31.25c51.25,0 95.833,-40.416 95.833,-102.5c-0,-62.5 -44.167,-102.083 -95.417,-102.083Zm-7.916,159.583c-29.584,0 -56.25,-23.75 -56.25,-57.916c-0,-34.167 28.333,-56.667 56.25,-56.667c30,-0 55,24.167 55,56.667c-0,32.5 -25,57.916 -55,57.916Z" style="fill-rule:nonzero;"/><path d="M2741.88,270.833c-12.917,-20.416 -38.75,-32.083 -65.417,-32.083c-55,-0 -95,43.333 -95,102.083c0,60.417 41.667,102.5 93.75,102.5c27.917,0 53.75,-14.166 66.667,-35.416l-0,30.416l48.333,0l0,-194.583l-48.333,-0l-0,27.083Zm-56.667,127.5c-31.666,0 -55.416,-26.25 -55.416,-57.5c-0,-31.25 23.75,-57.083 55,-57.083c28.75,-0 56.25,23.75 56.25,57.083c-0,32.5 -25.834,57.5 -55.834,57.5Z" style="fill-rule:nonzero;"/><path d="M2891.88,443.333c39.583,0 79.167,-21.666 79.167,-61.25c-0,-17.916 -7.917,-45.416 -51.667,-56.666l-31.25,-8.334c-11.25,-2.5 -20.833,-8.333 -20.833,-18.333c-0,-12.083 10.416,-20.833 25.416,-20.833c13.75,-0 25.834,8.333 25.834,21.666l46.25,0c0.416,-43.333 -38.75,-60.833 -73.334,-60.833c-42.5,-0 -72.5,27.5 -72.5,57.917c0,24.583 11.25,47.916 55,59.583l25.834,6.667c14.583,3.333 22.916,8.333 22.916,19.166c0,12.5 -12.5,22.084 -31.666,22.084c-20.417,-0 -32.084,-12.5 -32.084,-25.834l-45.416,0c0.833,41.667 39.583,65 78.333,65Z" style="fill-rule:nonzero;"/><path d="M3060.21,443.333c39.584,0 79.167,-21.666 79.167,-61.25c0,-17.916 -7.917,-45.416 -51.667,-56.666l-31.25,-8.334c-11.25,-2.5 -20.833,-8.333 -20.833,-18.333c0,-12.083 10.417,-20.833 25.417,-20.833c13.75,-0 25.833,8.333 25.833,21.666l46.25,0c0.417,-43.333 -38.75,-60.833 -73.333,-60.833c-42.5,-0 -72.5,27.5 -72.5,57.917c-0,24.583 11.25,47.916 55,59.583l25.833,6.667c14.583,3.333 22.917,8.333 22.917,19.166c-0,12.5 -12.5,22.084 -31.667,22.084c-20.417,-0 -32.083,-12.5 -32.083,-25.834l-45.417,0c0.833,41.667 39.583,65 78.333,65Z" style="fill-rule:nonzero;"/></g><g><path d="M89.167,375.842c84.404,-0 120.773,-45.029 162.975,-118.125c63.622,-110.197 148.793,-257.717 148.793,-257.717l-124.096,0c-35.726,-0 -68.739,19.06 -86.602,50l-188.125,325.842c-0,-0 -0,23.876 -0,53.036c-0,27.703 11.005,54.272 30.594,73.861c19.589,19.589 46.158,30.594 73.861,30.594l168.232,0l0.018,0.031c0.053,-0.031 0.053,-0.031 0.053,-0.031l-0.071,0c-13.106,-22.681 -35.683,-38.306 -61.533,-42.581c-68.963,-11.499 -130.096,-53.203 -165.722,-114.91l41.623,-0Z"/><circle cx="287.993" cy="360.632" r="39.368"/><rect x="400.935" y="0" width="134.51" height="533.333"/></g></g></svg>