<?xml version="1.0" encoding="UTF-8" standalone="no"?>
<!DOCTYPE svg PUBLIC "-//W3C//DTD SVG 1.1//EN" "http://www.w3.org/Graphics/SVG/1.1/DTD/svg11.dtd">
<svg width="100%" height="100%" viewBox="0 0 4608 1024" version="1.1" xmlns="http://www.w3.org/2000/svg" xmlns:xlink="http://www.w3.org/1999/xlink" xml:space="preserve" xmlns:serif="http://www.serif.com/" style="fill-rule:evenodd;clip-rule:evenodd;stroke-linejoin:round;stroke-miterlimit:2;">
    <g transform="matrix(1,0,0,1,-1074,0)">
        <g transform="matrix(4.5,0,0,1,-3759,0)">
            <rect id="Extended-Dark" serif:id="Extended/Dark" x="1074" y="0" width="1024" height="1024" style="fill:none;"/>
            <g id="Extended-Dark1" serif:id="Extended/Dark">
                <g id="Mark" transform="matrix(1.33333,0,0,6,981.769,-255.993)">
                    <g transform="matrix(-2.23816,0,0,2.23816,4304.61,-1556.9)">
                        <circle cx="1852.19" cy="762.881" r="4.221" style="fill:rgb(24,24,27);"/>
                    </g>
                    <g transform="matrix(-1.18104,0,0,1.18104,1585.7,-1107.37)">
                        <rect x="1157.62" y="991.81" width="27.334" height="108.379" style="fill:rgb(24,24,27);"/>
                    </g>
                    <g transform="matrix(-1,0,0,1,309.014,-918)">
                        <path d="M197.614,1072.2C177.357,1072.2 168.628,1061.39 158.5,1043.85C143.23,1017.4 122.789,982 122.789,982L152.572,982C161.147,982 169.07,986.574 173.357,994C173.357,994 205.724,1050.06 215.649,1067.25C217.521,1070.5 218.507,1074.17 218.507,1077.92L218.507,1084.93C218.507,1091.58 215.866,1097.96 211.164,1102.66C206.463,1107.36 200.086,1110 193.438,1110L153.062,1110L153.058,1110.01C153.045,1110 153.045,1110 153.045,1110L153.062,1110C156.207,1104.56 161.626,1100.81 167.83,1099.78C184.381,1097.02 199.053,1087.01 207.603,1072.2L197.614,1072.2Z" style="fill:rgb(24,24,27);"/>
                    </g>
                </g>
                <g id="Logotype" transform="matrix(10.714,0,0,48.213,-2533.56,-3661.85)">
                    <g id="Surname" transform="matrix(1,0,0,1,39.6218,0)">
                        <g transform="matrix(0.0207413,0,0,0.0207413,280.517,75.9516)">
                            <path d="M3832.81,703.999L3810.29,768L3733.47,768L3881.26,374.863L3881.59,374.894L3889.39,354.172L3967.28,354.172L4006.57,457.828L4005.93,457.828L4122.66,768.372L4045.85,768.372L4008.34,661.465C3984.22,689.008 3947.69,703.998 3910.73,703.998L3832.81,703.999ZM3918.75,457.828L3855.15,640L3910.73,640C3934.07,640 3952.59,629.17 3963.89,613.253C3974.81,597.854 3978.18,576.955 3971.41,555.669L3937.25,457.828L3936.72,457.828L3928,433.143L3919.32,457.828L3918.75,457.828Z" style="fill:rgb(24,24,27);"/>
                        </g>
                        <path d="M367.758,89.646L366.275,86.018L364.719,86.018L366.998,91.337L365.712,94.536L367.207,94.536L370.761,86.018L369.229,86.018L367.758,89.646Z" style="fill:rgb(24,24,27);fill-rule:nonzero;"/>
                        <path d="M373.604,91.889C375.234,91.889 376.656,90.688 376.656,88.874C376.656,87.06 375.234,85.871 373.604,85.871C371.974,85.871 370.565,87.06 370.565,88.874C370.565,90.688 371.974,91.889 373.604,91.889ZM373.604,90.565C372.722,90.565 371.999,89.879 371.999,88.874C371.999,87.893 372.722,87.195 373.604,87.195C374.486,87.195 375.222,87.893 375.222,88.874C375.222,89.879 374.486,90.565 373.604,90.565Z" style="fill:rgb(24,24,27);fill-rule:nonzero;"/>
                        <path d="M381.374,89.082C381.374,90.197 380.565,90.565 379.916,90.565C379.278,90.565 378.727,90.087 378.727,89.168L378.727,86.018L377.305,86.018L377.305,89.229C377.305,90.896 378.126,91.889 379.597,91.889C380.173,91.889 381.08,91.57 381.374,90.847L381.374,91.742L382.796,91.742L382.796,86.018L381.374,86.018L381.374,89.082Z" style="fill:rgb(24,24,27);fill-rule:nonzero;"/>
                        <path d="M387.208,85.871C386.485,85.871 385.688,86.165 385.296,86.778L385.296,83.298L383.874,83.298L383.874,91.742L385.296,91.742L385.296,90.969C385.688,91.582 386.509,91.889 387.195,91.889C388.703,91.889 390.014,90.7 390.014,88.874C390.014,87.035 388.715,85.871 387.208,85.871ZM386.975,90.565C386.105,90.565 385.32,89.866 385.32,88.862C385.32,87.857 386.154,87.195 386.975,87.195C387.857,87.195 388.592,87.906 388.592,88.862C388.592,89.817 387.857,90.565 386.975,90.565Z" style="fill:rgb(24,24,27);fill-rule:nonzero;"/>
                    </g>
                    <g id="Name" transform="matrix(1,0,0,1,-33.9219,0)">
                        <g transform="matrix(0.0207413,0,0,0.0207413,314.439,75.9516)">
                            <path d="M3832.81,703.999L3810.29,768L3733.47,768L3881.26,374.863L3881.59,374.894L3889.39,354.172L3967.28,354.172L4006.57,457.828L4005.93,457.828L4122.66,768.372L4045.85,768.372L4008.34,661.465C3984.22,689.008 3947.69,703.998 3910.73,703.998L3832.81,703.999ZM3918.75,457.828L3855.15,640L3910.73,640C3934.07,640 3952.59,629.17 3963.89,613.253C3974.81,597.854 3978.18,576.955 3971.41,555.669L3937.25,457.828L3936.72,457.828L3928,433.143L3919.32,457.828L3918.75,457.828Z" style="fill:rgb(24,24,27);"/>
                        </g>
                        <path d="M404.439,86.815C404.059,86.214 403.299,85.871 402.515,85.871C400.897,85.871 399.72,87.146 399.72,88.874C399.72,90.651 400.946,91.889 402.478,91.889C403.299,91.889 404.059,91.472 404.439,90.847L404.439,91.742L405.86,91.742L405.86,86.018L404.439,86.018L404.439,86.815ZM402.772,90.565C401.841,90.565 401.142,89.793 401.142,88.874C401.142,87.955 401.841,87.195 402.76,87.195C403.605,87.195 404.414,87.893 404.414,88.874C404.414,89.83 403.654,90.565 402.772,90.565Z" style="fill:rgb(24,24,27);fill-rule:nonzero;"/>
                        <path d="M410.027,85.871C409.304,85.871 408.508,86.165 408.115,86.778L408.115,83.298L406.694,83.298L406.694,91.742L408.115,91.742L408.115,90.969C408.508,91.582 409.329,91.889 410.015,91.889C411.522,91.889 412.834,90.7 412.834,88.874C412.834,87.035 411.535,85.871 410.027,85.871ZM409.794,90.565C408.924,90.565 408.14,89.866 408.14,88.862C408.14,87.857 408.973,87.195 409.794,87.195C410.677,87.195 411.412,87.906 411.412,88.862C411.412,89.817 410.677,90.565 409.794,90.565Z" style="fill:rgb(24,24,27);fill-rule:nonzero;"/>
                        <path d="M417.944,86.815C417.564,86.214 416.804,85.871 416.02,85.871C414.402,85.871 413.226,87.146 413.226,88.874C413.226,90.651 414.451,91.889 415.983,91.889C416.804,91.889 417.564,91.472 417.944,90.847L417.944,91.742L419.366,91.742L419.366,86.018L417.944,86.018L417.944,86.815ZM416.277,90.565C415.346,90.565 414.647,89.793 414.647,88.874C414.647,87.955 415.346,87.195 416.265,87.195C417.111,87.195 417.92,87.893 417.92,88.874C417.92,89.83 417.16,90.565 416.277,90.565Z" style="fill:rgb(24,24,27);fill-rule:nonzero;"/>
                        <path d="M422.356,91.889C423.52,91.889 424.685,91.251 424.685,90.087C424.685,89.56 424.452,88.751 423.165,88.42L422.246,88.175C421.915,88.102 421.633,87.93 421.633,87.636C421.633,87.281 421.939,87.023 422.381,87.023C422.785,87.023 423.14,87.268 423.14,87.66L424.501,87.66C424.513,86.386 423.361,85.871 422.344,85.871C421.094,85.871 420.211,86.68 420.211,87.575C420.211,88.298 420.542,88.984 421.829,89.327L422.589,89.523C423.018,89.621 423.263,89.768 423.263,90.087C423.263,90.455 422.895,90.737 422.332,90.737C421.731,90.737 421.388,90.369 421.388,89.977L420.052,89.977C420.077,91.202 421.216,91.889 422.356,91.889Z" style="fill:rgb(24,24,27);fill-rule:nonzero;"/>
                        <path d="M427.307,91.889C428.472,91.889 429.636,91.251 429.636,90.087C429.636,89.56 429.403,88.751 428.116,88.42L427.197,88.175C426.866,88.102 426.584,87.93 426.584,87.636C426.584,87.281 426.891,87.023 427.332,87.023C427.736,87.023 428.092,87.268 428.092,87.66L429.452,87.66C429.464,86.386 428.312,85.871 427.295,85.871C426.045,85.871 425.163,86.68 425.163,87.575C425.163,88.298 425.494,88.984 426.78,89.327L427.54,89.523C427.969,89.621 428.214,89.768 428.214,90.087C428.214,90.455 427.847,90.737 427.283,90.737C426.682,90.737 426.339,90.369 426.339,89.977L425.003,89.977C425.028,91.202 426.168,91.889 427.307,91.889Z" style="fill:rgb(24,24,27);fill-rule:nonzero;"/>
                    </g>
                </g>
            </g>
        </g>
    </g>
</svg>
